<?xml version="1.0" encoding="utf-8"?>
<!-- Generator: Adobe Illustrator 16.0.0, SVG Export Plug-In . SVG Version: 6.00 Build 0)  -->
<!DOCTYPE svg PUBLIC "-//W3C//DTD SVG 1.1//EN" "http://www.w3.org/Graphics/SVG/1.1/DTD/svg11.dtd">
<svg version="1.1" id="ͼ²❱" xmlns="http://www.w3.org/2000/svg" xmlns:xlink="http://www.w3.org/1999/xlink" x="0px" y="0px"
	 width="490px" height="490px" viewBox="0 0 490 490" enable-background="new 0 0 490 490" xml:space="preserve">
<g>
	
		
	<g>
		
			<linearGradient id="SVGID_1_" gradientUnits="userSpaceOnUse" x1="-1272.8271" y1="-2434.123" x2="-946.8271" y2="-2434.123" gradientTransform="matrix(0 1 -1 0 -2187.623 1279.8271)">
			<stop  offset="0.1857" style="stop-color:#E54322"/>
			<stop  offset="0.4307" style="stop-color:#E50321"/>
			<stop  offset="0.9125" style="stop-color:#E51F1F"/>
			<stop  offset="0.9253" style="stop-color:#5E060C"/>
			<stop  offset="0.9458" style="stop-color:#21040B"/>
			<stop  offset="0.9852" style="stop-color:#3F0008"/>
		</linearGradient>
		<polygon fill="url(#SVGID_1_)" points="243.999,333 241.5,309.584 245.051,7 247.951,7 251.5,309.584 249.001,333 		"/>
		<linearGradient id="SVGID_2_" gradientUnits="userSpaceOnUse" x1="246.5" y1="4" x2="246.5" y2="336">
			<stop  offset="0.004" style="stop-color:#8A8A8A"/>
			<stop  offset="0.1669" style="stop-color:#808080"/>
			<stop  offset="0.4818" style="stop-color:#B8B8B8"/>
			<stop  offset="0.9031" style="stop-color:#CCCCCC"/>
			<stop  offset="0.9174" style="stop-color:#808080"/>
			<stop  offset="0.9423" style="stop-color:#808080"/>
			<stop  offset="0.9592" style="stop-color:#808080"/>
			<stop  offset="0.9852" style="stop-color:#8A8A8A"/>
		</linearGradient>
		<path fill="url(#SVGID_2_)" d="M247.951,7l3.549,302.584L249.001,333h-5.002l-2.499-23.416L245.051,7H247.951 M247.951,4h-2.9
			c-1.643,0-2.98,1.322-3,2.965L238.5,309.549c-0.001,0.118,0.004,0.236,0.017,0.354l2.499,23.416
			c0.163,1.525,1.449,2.682,2.983,2.682h5.002c1.534,0,2.82-1.156,2.983-2.682l2.499-23.416c0.013-0.117,0.018-0.235,0.017-0.354
			L250.951,6.965C250.932,5.322,249.594,4,247.951,4L247.951,4z"/>
	</g>
</g>
<circle fill="#2B2A2E" stroke="#F84000" stroke-width="4" stroke-miterlimit="10" cx="246.5" cy="244.999" r="27"/>
</svg>
